<svg width="12" height="12" viewBox="0 0 12 12" fill="none" xmlns="http://www.w3.org/2000/svg">
<path d="M11.2505 0.758431C10.9255 0.433431 10.4005 0.433431 10.0755 0.758431L6.00046 4.8251L1.92546 0.750098C1.60046 0.425098 1.07546 0.425098 0.750464 0.750098C0.425464 1.0751 0.425464 1.6001 0.750464 1.9251L4.82546 6.0001L0.750464 10.0751C0.425464 10.4001 0.425464 10.9251 0.750464 11.2501C1.07546 11.5751 1.60046 11.5751 1.92546 11.2501L6.00046 7.1751L10.0755 11.2501C10.4005 11.5751 10.9255 11.5751 11.2505 11.2501C11.5755 10.9251 11.5755 10.4001 11.2505 10.0751L7.17546 6.0001L11.2505 1.9251C11.5671 1.60843 11.5671 1.0751 11.2505 0.758431Z" fill="#616A73"/>
</svg>